<?xml version="1.0" encoding="UTF-8" standalone="no"?>
<svg
   id="Ebene_1"
   data-name="Ebene 1"
   viewBox="0 0 153.24001 160.83999"
   version="1.1"
   sodipodi:docname="Logo_1-1_for_light.svg"
   width="153.24001"
   height="160.84"
   inkscape:version="1.4.2 (f4327f4, 2025-05-13)"
   xmlns:inkscape="http://www.inkscape.org/namespaces/inkscape"
   xmlns:sodipodi="http://sodipodi.sourceforge.net/DTD/sodipodi-0.dtd"
   xmlns="http://www.w3.org/2000/svg"
   xmlns:svg="http://www.w3.org/2000/svg">
   <sodipodi:namedview
      id="namedview47"
      pagecolor="#ffffff"
      bordercolor="#000000"
      borderopacity="0.25"
      inkscape:showpageshadow="2"
      inkscape:pageopacity="0.0"
      inkscape:pagecheckerboard="0"
      inkscape:deskcolor="#d1d1d1"
      inkscape:zoom="2.5578885"
      inkscape:cx="85.031073"
      inkscape:cy="123.73487"
      inkscape:window-width="1920"
      inkscape:window-height="1177"
      inkscape:window-x="-8"
      inkscape:window-y="34"
      inkscape:window-maximized="1"
      inkscape:current-layer="Ebene_1" />
   <defs
      id="defs1">
      <style
         id="style1">
         .cls-1 {
         fill: #6e199a;
         }

         .cls-2 {
         fill: #6e199a;
         }

         @media (prefers-color-scheme: light) {
         .cls-1 {
         fill: #bb65e6;
         }

         .cls-2 {
         fill: #bb65e6;
         }
         }


      </style>
   </defs>
   <g
      id="g47"
      style="">
      <path
         class="cls-2"
         d="m 131.77,160.84 h -13.49 l -4.02,-6.99 c -1.47,-2.55 -3.83,-4.07 -6.3,-4.07 h -62.7 c -2.48,0 -4.84,1.52 -6.3,4.07 l -4.02,6.99 H 21.45 l 7.38,-12.82 c 3.57,-6.21 9.72,-9.93 16.43,-9.93 h 62.7 c 6.71,0 12.85,3.72 16.43,9.93 z"
         id="path42"
         style="" />
      <g
         id="g44"
         style="">
         <path
            class="cls-2"
            d="M 0,35.2 C 0,27.89 1.83,22.35 5.48,18.58 9.14,14.81 14.57,12.93 21.77,12.93 h 41.58 c 2.95,0 5.07,-0.63 6.38,-1.88 1.31,-1.26 1.96,-3.08 1.96,-5.48 V 0 h 9.82 v 5.57 c 0,2.4 0.65,4.23 1.96,5.48 1.31,1.25 3.44,1.88 6.38,1.88 h 41.58 c 7.31,0 12.77,1.88 16.37,5.65 3.6,3.77 5.4,9.3 5.4,16.62 v 6.22 h -9.66 V 37 c 0,-4.15 -1.15,-7.26 -3.44,-9.33 -2.29,-2.07 -5.51,-3.11 -9.66,-3.11 H 90 c -3.27,0 -5.84,-0.38 -7.69,-1.15 -1.86,-0.77 -3.27,-1.94 -4.26,-3.52 -0.98,-1.58 -1.75,-3.63 -2.29,-6.14 h 1.64 c -0.44,2.51 -1.17,4.56 -2.21,6.14 -1.04,1.58 -2.48,2.76 -4.34,3.52 -1.86,0.76 -4.42,1.15 -7.69,1.15 h -40.4 c -4.15,0 -7.37,1.04 -9.66,3.11 -2.29,2.07 -3.44,5.18 -3.44,9.33 v 4.42 H 0 Z"
            id="path43"
            style="" />
         <path
            class="cls-2"
            d="m 0,94.52 h 9.66 v 4.42 c 0,4.15 1.15,7.26 3.44,9.33 2.29,2.07 5.51,3.11 9.66,3.11 H 63.2 c 3.27,0 5.84,0.38 7.69,1.15 1.85,0.77 3.3,1.94 4.34,3.52 1.04,1.58 1.77,3.63 2.21,6.14 H 75.8 c 0.54,-2.51 1.31,-4.56 2.29,-6.14 0.98,-1.58 2.4,-2.76 4.26,-3.52 1.85,-0.76 4.42,-1.15 7.69,-1.15 h 40.44 c 4.15,0 7.37,-1.04 9.66,-3.11 2.29,-2.07 3.44,-5.18 3.44,-9.33 v -4.42 h 9.66 v 6.22 c 0,7.31 -1.8,12.85 -5.4,16.62 -3.6,3.77 -9.06,5.65 -16.37,5.65 H 89.89 c -2.95,0 -5.07,0.63 -6.38,1.88 -1.31,1.26 -1.96,3.08 -1.96,5.48 v 11.7 h -9.82 v -11.7 c 0,-2.4 -0.65,-4.23 -1.96,-5.48 -1.31,-1.25 -3.44,-1.88 -6.38,-1.88 H 21.77 c -7.2,0 -12.63,-1.88 -16.29,-5.65 C 1.83,113.59 0,108.06 0,100.74 Z"
            id="path44"
            style="" />
      </g>
      <g
         id="g46"
         style="">
         <polygon
            class="cls-2"
            points="23.02,63.45 58.25,34.63 65.65,43.67 35.95,67.97 65.65,92.27 58.25,101.31 23.02,72.49 "
            id="polygon44"
            style="" />
         <polygon
            class="cls-2"
            points="117.28,67.97 87.58,43.67 94.98,34.63 130.21,63.45 130.21,72.49 94.98,101.31 87.58,92.27 "
            id="polygon45"
            style="" />
         <polygon
            class="cls-2"
            points="84.55,48.24 93.59,55.65 68.89,87.7 59.84,80.3 "
            id="polygon46"
            style="" />
      </g>
   </g>
</svg>