<?xml version="1.0" encoding="UTF-8" standalone="no"?>
<!-- Created with Inkscape (http://www.inkscape.org/) -->

<svg
   version="1.1"
   id="svg1"
   width="1536"
   height="1024"
   viewBox="0 0 1536 1024"
   sodipodi:docname="ProjectNotFound-Foreground.svg"
   inkscape:version="1.4.2 (f4327f4, 2025-05-13)"
   xmlns:inkscape="http://www.inkscape.org/namespaces/inkscape"
   xmlns:sodipodi="http://sodipodi.sourceforge.net/DTD/sodipodi-0.dtd"
   xmlns="http://www.w3.org/2000/svg"
   xmlns:svg="http://www.w3.org/2000/svg">
   <defs
      id="defs1">
      <rect
         x="441.209"
         y="254.62808"
         width="629.985"
         height="269.99357"
         id="rect20" />
      <clipPath
         clipPathUnits="userSpaceOnUse"
         id="clipPath23">
         <g
            inkscape:label="Clip"
            id="use23" />
      </clipPath>
      <clipPath
         clipPathUnits="userSpaceOnUse"
         id="clipPath24">
         <rect
            style="fill:#f498b5;fill-opacity:1;stroke-width:25.9935"
            id="rect24"
            width="1536.7242"
            height="1023.7391"
            x="-0.38803717"
            y="-0.67906505" />
      </clipPath>
   </defs>
   <sodipodi:namedview
      id="namedview1"
      pagecolor="#ffffff"
      bordercolor="#000000"
      borderopacity="0.25"
      inkscape:showpageshadow="2"
      inkscape:pageopacity="0.0"
      inkscape:pagecheckerboard="0"
      inkscape:deskcolor="#d1d1d1"
      inkscape:zoom="0.45556641"
      inkscape:cx="957.05037"
      inkscape:cy="622.30225"
      inkscape:window-width="1920"
      inkscape:window-height="1177"
      inkscape:window-x="-8"
      inkscape:window-y="34"
      inkscape:window-maximized="1"
      inkscape:current-layer="g1" />
   <g
      inkscape:groupmode="layer"
      inkscape:label="Image"
      id="g1"
      clip-path="url(#clipPath24)"
      filter="url(#smoothFilter)"
      shape-rendering="geometricPrecision">
      <path
         id="path12"
         style="display:inline;fill:#f498b5;fill-opacity:1"
         d="m 1225.6113,613.60938 c -42.3603,-2.50572 -89.8169,4.20513 -136.7734,30.08593 -92.21804,50.82734 -98.31034,67.85567 -161.64845,113.56641 C 863.01772,803.57409 780.35314,864.19835 679.23633,848.50586 616.65619,838.79394 593.31681,834.26161 492.5,778.57422 321.86439,684.32157 290.08754,693.87952 264.9707,693.73828 c -20.31149,-0.11421 -75.13,9.72338 -131.86523,61.60742 -27.37438,25.03371 -56.997152,57.20845 -84.376954,77.81055 -27.410849,20.62546 -49.55078162,32.60352 -49.55078162,32.60352 L -0.16210938,693.9375 -198.67578,949.91406 l 90.02539,226.61524 1635.96489,-24.8359 158.3183,-428.39262 -149.7519,-63.95703 -0.078,66.84961 c 0,0 14.4208,5.43843 -30.1465,-6.54102 -34.7455,-9.33942 -50.1393,-19.70994 -74.1601,-31.54101 -22.3528,-11.00953 -38.1833,-23.87808 -99.6895,-49.29492 -26.572,-10.98061 -63.8349,-22.70132 -106.1953,-25.20703 z"
         inkscape:label="bottom" />
      <path
         id="path15"
         style="display:inline;fill:#9b3982;fill-opacity:1"
         inkscape:label="middle2"
         d="m 1536,555.83203 c 0,0 -27.7733,-2.34234 -72.8516,-18.69336 -50.927,-18.47249 -105.8619,-53.36825 -181.8496,-94.38867 -36.3323,-19.61324 -84.4138,-30.56101 -129.6816,-32.16602 -118.5976,-4.20497 -225.8125,70.663 -264.95314,101.625 -51.99698,41.13194 -146.28997,93.51768 -201.77929,106.71094 -55.48931,13.19327 -98.94957,17.46153 -137.36524,3.49219 -18.95008,-6.89094 -50.86689,-18.89384 -81.47851,-34.67383 -31.44438,-16.20928 -61.61701,-36.22363 -83.04883,-44.875 -42.29605,-17.07363 -104.76898,-42.68404 -164.13867,-32.20703 -59.36969,10.477 -95.45849,32.59482 -138.142582,69.07031 C 38.026848,616.20205 0,651.90234 0,651.90234 l -158.17188,-68.0143 -55.57276,277.03863 212.92148887,4.83237 c 0,0 22.14178413,-11.97753 49.55263313,-32.60299 27.379802,-20.6021 57.002408,-52.7765 84.376788,-77.81021 56.73523,-51.88404 111.55328,-61.72201 131.86477,-61.6078 25.11684,0.14124 56.89363,-9.4158 227.52924,84.83685 100.81681,55.68739 124.15574,60.22 186.73588,69.93192 101.11681,15.69249 183.78105,-44.93348 247.95278,-91.24585 63.33811,-45.71074 69.43063,-62.73901 161.64866,-113.56635 93.9131,-51.76161 189.8259,-26.83853 242.9699,-4.87732 61.5062,25.41684 77.3365,38.28402 99.6893,49.29355 24.0208,11.83107 39.4133,22.20159 74.1588,31.54101 44.5673,11.97945 30.1474,6.54204 30.1474,6.54204 l 176.8721,60.14172 29.5985,-274.88255 z"
         sodipodi:nodetypes="cssssssssssccccsssssssssscccc" />
      <path
         id="path16"
         style="display:inline;fill:#6a2178;fill-opacity:1"
         d="m 1537.0156,362.42578 c 0,0 -15.9097,1.94151 -41.9082,-0.38672 -25.9985,-2.32822 -50.0574,-8.92514 -92.3535,-24.05859 -42.296,-15.13345 -69.8465,-34.92378 -126.5,-67.13086 -56.6534,-32.20709 -100.1128,-46.17602 -127.2754,-55.87695 -27.1626,-9.70093 -75.2799,-15.90958 -107.875,-14.35743 -32.5951,1.55215 -73.33963,8.92461 -109.03905,21.3418 -35.69942,12.41719 -76.44321,38.02881 -95.45703,49.66992 -19.01382,11.64112 -60.14413,49.6685 -84.97851,67.90625 -24.83438,18.23774 -82.65234,51.60737 -129.2168,68.29297 -46.56446,16.6856 -123.00806,23.28257 -132.70899,22.89453 -9.70093,-0.38804 -26.38754,-3.88017 -37.64062,-4.65625 -11.25307,-0.77607 -56.26538,-17.07412 -62.08594,-19.40234 -5.82056,-2.32823 -139.69233,-65.96469 -148.61718,-69.45703 -8.92485,-3.49233 -27.93853,-8.53759 -50.05665,-12.41797 -22.11812,-3.88037 -50.44574,-2.71553 -71.01171,-1.93945 -20.565973,0.77607 -64.414067,18.23632 -64.414067,18.23632 L -0.77539062,368.63477 -171.31027,341.27481 -145.21703,658.50982 0,651.90234 c 0,0 38.026849,-35.70029 80.710938,-72.17578 42.684092,-36.47549 78.772892,-58.59331 138.142582,-69.07031 59.36969,-10.47701 121.84262,15.1334 164.13867,32.20703 21.43182,8.65137 51.60445,28.66572 83.04883,44.875 30.61162,15.77999 62.52843,27.78289 81.47851,34.67383 38.41567,13.96934 81.87593,9.70108 137.36524,-3.49219 55.48932,-13.19326 149.78231,-65.579 201.77929,-106.71094 39.14064,-30.962 146.35554,-105.82997 264.95314,-101.625 45.2678,1.60501 93.3493,12.55278 129.6816,32.16602 75.9877,41.02042 130.9226,75.91618 181.8496,94.38867 45.0783,16.35102 72.8516,18.69336 72.8516,18.69336 l 169.694,128.95799 c -46.8504,-91.44725 425.752,-492.00996 -63.7238,-362.14453 l -102.6772,37.3467 z"
         sodipodi:nodetypes="cssssssssssssssscccccssssssssssccccc"
         inkscape:label="middle" />
      <path
         style="display:inline;fill:#3d0d56;fill-opacity:1"
         d="M -0.77607432,368.6353 55.877351,341.08467 c 0,0 43.8482,-17.46168 64.414169,-18.23775 20.56597,-0.77608 48.89268,-1.94019 71.0108,1.94018 22.11812,3.88038 41.13194,8.92486 50.05679,12.41719 8.92486,3.49234 142.79768,67.13043 148.61824,69.45866 5.82056,2.32822 50.83287,18.62578 62.08594,19.40185 11.25308,0.77608 27.93868,4.26841 37.63961,4.65645 9.70093,0.38804 86.14425,-6.20859 132.70871,-22.89419 46.56446,-16.6856 104.38199,-50.0568 129.21637,-68.29454 24.83438,-18.23775 65.96632,-56.26539 84.98014,-67.90651 19.01382,-11.64111 59.75772,-37.25156 95.45714,-49.66875 35.69942,-12.41719 76.44334,-19.7899 109.03844,-21.34205 32.5951,-1.55215 80.7117,4.65645 107.8743,14.35738 27.1626,9.70093 70.6228,23.67026 127.2762,55.87735 56.6535,32.20708 84.2041,51.99698 126.5001,67.13043 42.2961,15.13345 66.3544,21.73008 92.3529,24.0583 25.9985,2.32823 41.908,0.38804 41.908,0.38804 l 92.436,59.97638 5.9948,-486.053203 -98.8188,62.87403868 L -1.1641115,-1.1641115 -53.679597,-1.1281905 -52.790971,369.02214 Z"
         id="path9"
         inkscape:label="top"
         sodipodi:nodetypes="ccssssssssssssssscccccccc" />
   </g>
</svg>