<?xml version="1.0" encoding="UTF-8" standalone="no"?>
<svg
   id="Ebene_1"
   data-name="Ebene 1"
   viewBox="0 0 592.98 160.83999"
   version="1.1"
   sodipodi:docname="Logo_for_light.svg"
   width="592.97998"
   height="160.84"
   inkscape:version="1.4.2 (f4327f4, 2025-05-13)"
   xmlns:inkscape="http://www.inkscape.org/namespaces/inkscape"
   xmlns:sodipodi="http://sodipodi.sourceforge.net/DTD/sodipodi-0.dtd"
   xmlns="http://www.w3.org/2000/svg"
   xmlns:svg="http://www.w3.org/2000/svg">
   <sodipodi:namedview
      id="namedview47"
      pagecolor="#ffffff"
      bordercolor="#000000"
      borderopacity="0.25"
      inkscape:showpageshadow="2"
      inkscape:pageopacity="0.0"
      inkscape:pagecheckerboard="0"
      inkscape:deskcolor="#d1d1d1"
      inkscape:zoom="1.2789442"
      inkscape:cx="146.6053"
      inkscape:cy="44.177063"
      inkscape:window-width="1920"
      inkscape:window-height="1177"
      inkscape:window-x="-8"
      inkscape:window-y="34"
      inkscape:window-maximized="1"
      inkscape:current-layer="Ebene_1"
      showgrid="false" />
   <defs
      id="defs1">
      <style
         id="style1">
         .cls-1 {
         fill: #6e199a;
         }

         .cls-2 {
         fill: #6e199a;
         }

         @media (prefers-color-scheme: light) {
         .cls-1 {
         fill: #bb65e6;
         }

         .cls-2 {
         fill: #bb65e6;
         }
         }
      </style>
   </defs>
   <g
      id="g15"
      style="display:inline;fill:#6e199a;fill-opacity:1"
      transform="translate(-22.98,-355)">
      <path
         class="cls-1"
         d="m 195.01,444.53 c -1.23,-1.12 -1.85,-2.78 -1.85,-4.98 v -11.04 c 0,-1.4 -0.26,-2.35 -0.78,-2.85 -0.52,-0.5 -1.51,-0.75 -2.98,-0.75 v -5.4 c 1.47,0 2.47,-0.25 2.98,-0.75 0.52,-0.5 0.78,-1.45 0.78,-2.85 v -11.04 c 0,-2.2 0.62,-3.86 1.85,-4.98 1.23,-1.12 2.82,-1.68 4.77,-1.68 h 3.34 v 5.4 h -0.95 c -1.07,0 -1.87,0.31 -2.39,0.93 -0.52,0.62 -0.78,1.73 -0.78,3.33 v 9 c 0,2.8 -1.21,4.56 -3.64,5.28 v 0.12 c 2.43,0.72 3.64,2.48 3.64,5.28 v 9 c 0,1.6 0.26,2.71 0.78,3.33 0.52,0.62 1.31,0.93 2.39,0.93 h 0.95 v 5.4 h -3.34 c -1.95,0 -3.54,-0.56 -4.77,-1.68 z"
         id="path1"
         style="fill:#6e199a;fill-opacity:1" />
      <path
         class="cls-1"
         d="m 219,401.21 h 10.03 c 3.26,0 5.71,0.88 7.34,2.64 1.63,1.76 2.45,4.34 2.45,7.74 v 21.24 c 0,3.4 -0.82,5.98 -2.45,7.74 -1.63,1.76 -4.08,2.64 -7.34,2.64 H 219 Z m 9.9,36 c 1.07,0 1.9,-0.32 2.48,-0.96 0.58,-0.64 0.87,-1.68 0.87,-3.12 v -21.84 c 0,-1.44 -0.29,-2.48 -0.87,-3.12 -0.58,-0.64 -1.4,-0.96 -2.48,-0.96 h -3.34 v 30 z"
         id="path2"
         style="fill:#6e199a;fill-opacity:1" />
      <path
         class="cls-1"
         d="m 254.15,401.21 h 8.89 l 6.8,42 h -6.56 l -1.19,-8.34 v 0.12 h -7.46 l -1.19,8.22 h -6.09 z m 7.16,28.08 -2.92,-20.76 h -0.12 l -2.86,20.76 h 5.91 z"
         id="path3"
         style="fill:#6e199a;fill-opacity:1" />
      <path
         class="cls-1"
         d="m 278.97,401.21 h 9.73 c 3.38,0 5.85,0.79 7.4,2.37 1.55,1.58 2.33,4.01 2.33,7.29 v 2.58 c 0,4.36 -1.43,7.12 -4.3,8.28 v 0.12 c 1.59,0.48 2.72,1.46 3.37,2.94 0.66,1.48 0.98,3.46 0.98,5.94 v 7.38 c 0,1.2 0.04,2.17 0.12,2.91 0.08,0.74 0.28,1.47 0.6,2.19 h -6.68 c -0.24,-0.68 -0.4,-1.32 -0.48,-1.92 -0.08,-0.6 -0.12,-1.68 -0.12,-3.24 v -7.68 c 0,-1.92 -0.31,-3.26 -0.93,-4.02 -0.62,-0.76 -1.68,-1.14 -3.19,-1.14 h -2.27 v 18 h -6.56 z m 8.95,18 c 1.31,0 2.3,-0.34 2.95,-1.02 0.65,-0.68 0.98,-1.82 0.98,-3.42 v -3.24 c 0,-1.52 -0.27,-2.62 -0.81,-3.3 -0.54,-0.68 -1.38,-1.02 -2.54,-1.02 h -2.98 v 12 h 2.39 z"
         id="path4"
         style="fill:#6e199a;fill-opacity:1" />
      <path
         class="cls-1"
         d="m 308.99,401.21 h 6.56 v 42 h -6.56 z"
         id="path5"
         style="fill:#6e199a;fill-opacity:1" />
      <path
         class="cls-1"
         d="m 328.68,441.08 c -1.67,-1.82 -2.51,-4.43 -2.51,-7.83 v -32.04 h 6.56 v 32.52 c 0,1.44 0.29,2.48 0.87,3.12 0.58,0.64 1.4,0.96 2.48,0.96 1.08,0 1.9,-0.32 2.48,-0.96 0.58,-0.64 0.87,-1.68 0.87,-3.12 v -32.52 h 6.33 v 32.04 c 0,3.4 -0.84,6.01 -2.51,7.83 -1.67,1.82 -4.1,2.73 -7.28,2.73 -3.18,0 -5.61,-0.91 -7.28,-2.73 z"
         id="path6"
         style="fill:#6e199a;fill-opacity:1" />
      <path
         class="cls-1"
         d="m 357.68,441.08 c -1.63,-1.82 -2.45,-4.43 -2.45,-7.83 v -2.4 h 6.21 v 2.88 c 0,2.72 1.13,4.08 3.4,4.08 1.11,0 1.96,-0.33 2.54,-0.99 0.58,-0.66 0.87,-1.73 0.87,-3.21 0,-1.76 -0.4,-3.31 -1.19,-4.65 -0.8,-1.34 -2.27,-2.95 -4.42,-4.83 -2.71,-2.4 -4.6,-4.57 -5.67,-6.51 -1.07,-1.94 -1.61,-4.13 -1.61,-6.57 0,-3.32 0.84,-5.89 2.51,-7.71 1.67,-1.82 4.1,-2.73 7.28,-2.73 3.18,0 5.52,0.91 7.13,2.73 1.61,1.82 2.42,4.43 2.42,7.83 v 1.74 h -6.21 v -2.16 c 0,-1.44 -0.28,-2.49 -0.84,-3.15 -0.56,-0.66 -1.37,-0.99 -2.45,-0.99 -2.19,0 -3.28,1.34 -3.28,4.02 0,1.52 0.41,2.94 1.22,4.26 0.81,1.32 2.3,2.92 4.45,4.8 2.75,2.4 4.63,4.58 5.67,6.54 1.03,1.96 1.55,4.26 1.55,6.9 0,3.44 -0.85,6.08 -2.54,7.92 -1.69,1.84 -4.15,2.76 -7.37,2.76 -3.22,0 -5.59,-0.91 -7.22,-2.73 z"
         id="path7"
         style="fill:#6e199a;fill-opacity:1" />
      <path
         class="cls-1"
         d="m 400.05,401.21 h 17.37 v 6 h -10.8 v 11.7 h 8.47 v 6 h -8.47 v 18.3 h -6.56 v -42 z"
         id="path8"
         style="fill:#6e199a;fill-opacity:1" />
      <path
         class="cls-1"
         d="m 426.55,401.21 h 9.73 c 3.38,0 5.85,0.79 7.4,2.37 1.55,1.58 2.33,4.01 2.33,7.29 v 2.58 c 0,4.36 -1.43,7.12 -4.3,8.28 v 0.12 c 1.59,0.48 2.72,1.46 3.37,2.94 0.66,1.48 0.99,3.46 0.99,5.94 v 7.38 c 0,1.2 0.04,2.17 0.12,2.91 0.08,0.74 0.28,1.47 0.6,2.19 h -6.68 c -0.24,-0.68 -0.4,-1.32 -0.48,-1.92 -0.08,-0.6 -0.12,-1.68 -0.12,-3.24 v -7.68 c 0,-1.92 -0.31,-3.26 -0.92,-4.02 -0.62,-0.76 -1.68,-1.14 -3.19,-1.14 h -2.27 v 18 h -6.56 v -42 z m 8.95,18 c 1.31,0 2.3,-0.34 2.95,-1.02 0.66,-0.68 0.98,-1.82 0.98,-3.42 v -3.24 c 0,-1.52 -0.27,-2.62 -0.81,-3.3 -0.54,-0.68 -1.38,-1.02 -2.54,-1.02 h -2.98 v 12 h 2.39 z"
         id="path9"
         style="fill:#6e199a;fill-opacity:1" />
      <path
         class="cls-1"
         d="m 458.66,441.05 c -1.71,-1.84 -2.57,-4.44 -2.57,-7.8 v -22.08 c 0,-3.36 0.85,-5.96 2.57,-7.8 1.72,-1.84 4.18,-2.76 7.4,-2.76 3.22,0 5.69,0.92 7.4,2.76 1.71,1.84 2.57,4.44 2.57,7.8 v 22.08 c 0,3.36 -0.86,5.96 -2.57,7.8 -1.71,1.84 -4.18,2.76 -7.4,2.76 -3.22,0 -5.69,-0.92 -7.4,-2.76 z m 10.8,-7.38 v -22.92 c 0,-2.76 -1.13,-4.14 -3.4,-4.14 -2.27,0 -3.4,1.38 -3.4,4.14 v 22.92 c 0,2.76 1.13,4.14 3.4,4.14 2.27,0 3.4,-1.38 3.4,-4.14 z"
         id="path10"
         style="fill:#6e199a;fill-opacity:1" />
      <path
         class="cls-1"
         d="m 486.41,401.21 h 9.91 c 3.38,0 5.85,0.79 7.4,2.37 1.55,1.58 2.33,4.01 2.33,7.29 v 1.68 c 0,2.16 -0.35,3.92 -1.04,5.28 -0.7,1.36 -1.76,2.34 -3.19,2.94 v 0.12 c 3.26,1.12 4.89,4.04 4.89,8.76 v 3.6 c 0,3.24 -0.85,5.71 -2.54,7.41 -1.69,1.7 -4.17,2.55 -7.43,2.55 h -10.32 v -42 z m 9.13,17.1 c 1.31,0 2.3,-0.34 2.95,-1.02 0.66,-0.68 0.99,-1.82 0.99,-3.42 v -2.34 c 0,-1.52 -0.27,-2.62 -0.81,-3.3 -0.54,-0.68 -1.38,-1.02 -2.54,-1.02 h -3.16 v 11.1 z m 1.19,18.9 c 1.15,0 2.01,-0.31 2.57,-0.93 0.56,-0.62 0.84,-1.69 0.84,-3.21 v -3.66 c 0,-1.92 -0.33,-3.25 -0.98,-3.99 -0.66,-0.74 -1.74,-1.11 -3.25,-1.11 h -2.92 v 12.9 h 3.76 z"
         id="path11"
         style="fill:#6e199a;fill-opacity:1" />
      <path
         class="cls-1"
         d="m 516.49,401.21 h 17.9 v 6 h -11.34 v 11.1 h 9.01 v 6 h -9.01 v 12.9 h 11.34 v 6 h -17.9 z"
         id="path12"
         style="fill:#6e199a;fill-opacity:1" />
      <path
         class="cls-1"
         d="m 544.12,401.21 h 17.9 v 6 h -11.34 v 11.1 h 9.01 v 6 h -9.01 v 12.9 h 11.34 v 6 h -17.9 z"
         id="path13"
         style="fill:#6e199a;fill-opacity:1" />
      <path
         class="cls-1"
         d="m 571.75,401.21 h 8.24 l 6.38,25.14 h 0.12 v -25.14 h 5.85 v 42 h -6.74 l -7.88,-30.66 h -0.12 v 30.66 h -5.85 z"
         id="path14"
         style="fill:#6e199a;fill-opacity:1" />
      <path
         class="cls-1"
         d="m 602.24,440.81 h 0.96 c 1.07,0 1.87,-0.31 2.39,-0.93 0.52,-0.62 0.78,-1.73 0.78,-3.33 v -9 c 0,-2.8 1.21,-4.56 3.64,-5.28 v -0.12 c -2.43,-0.72 -3.64,-2.48 -3.64,-5.28 v -9 c 0,-1.6 -0.26,-2.71 -0.78,-3.33 -0.52,-0.62 -1.31,-0.93 -2.39,-0.93 h -0.96 v -5.4 h 3.34 c 1.95,0 3.54,0.56 4.77,1.68 1.23,1.12 1.85,2.78 1.85,4.98 v 11.04 c 0,1.4 0.26,2.35 0.78,2.85 0.52,0.5 1.51,0.75 2.98,0.75 v 5.4 c -1.47,0 -2.47,0.25 -2.98,0.75 -0.52,0.5 -0.78,1.45 -0.78,2.85 v 11.04 c 0,2.2 -0.62,3.86 -1.85,4.98 -1.23,1.12 -2.83,1.68 -4.77,1.68 h -3.34 z"
         id="path15"
         style="fill:#6e199a;fill-opacity:1" />
   </g>
   <g
      id="g36"
      style="display:inline;fill:#6e199a;fill-opacity:1"
      transform="translate(-22.98,-355)">
      <path
         class="cls-1"
         d="m 216.44,465.24 v 2.45 l -11.95,5.04 11.95,4.93 v 2.45 l -14.62,-6.16 v -2.45 z"
         id="path16"
         style="fill:#6e199a;fill-opacity:1" />
      <path
         class="cls-1"
         d="m 237.06,458.18 c 1.18,0.02 2.39,0.08 3.64,0.18 1.25,0.1 2.5,0.28 3.74,0.54 l -0.22,2.3 c -1.03,-0.05 -2.17,-0.09 -3.42,-0.13 -1.25,-0.04 -2.45,-0.05 -3.6,-0.05 -0.89,0 -1.65,0.03 -2.29,0.09 -0.64,0.06 -1.16,0.2 -1.57,0.43 -0.41,0.23 -0.7,0.6 -0.88,1.12 -0.18,0.52 -0.27,1.23 -0.27,2.14 0,1.37 0.25,2.32 0.74,2.86 0.49,0.54 1.29,0.94 2.39,1.21 l 5.04,1.26 c 1.92,0.46 3.23,1.25 3.94,2.39 0.71,1.14 1.06,2.67 1.06,4.59 0,1.44 -0.16,2.6 -0.49,3.49 -0.32,0.89 -0.82,1.57 -1.49,2.03 -0.67,0.47 -1.54,0.79 -2.59,0.97 -1.06,0.18 -2.3,0.27 -3.74,0.27 -0.82,0 -1.88,-0.04 -3.19,-0.11 -1.31,-0.07 -2.81,-0.26 -4.52,-0.58 l 0.22,-2.34 c 1.42,0.05 2.56,0.09 3.42,0.13 0.86,0.04 1.61,0.05 2.23,0.05 h 1.94 c 1.27,0 2.27,-0.1 3.01,-0.29 0.73,-0.19 1.25,-0.58 1.55,-1.15 0.3,-0.58 0.45,-1.43 0.45,-2.56 0,-0.96 -0.11,-1.7 -0.32,-2.23 -0.22,-0.53 -0.56,-0.93 -1.03,-1.21 -0.47,-0.28 -1.06,-0.5 -1.78,-0.67 l -5.15,-1.3 c -1.8,-0.46 -3.07,-1.25 -3.8,-2.38 -0.73,-1.13 -1.1,-2.64 -1.1,-4.54 0,-1.44 0.16,-2.6 0.49,-3.47 0.32,-0.88 0.82,-1.54 1.48,-1.98 0.66,-0.44 1.49,-0.74 2.5,-0.88 1.01,-0.14 2.21,-0.22 3.6,-0.22 z"
         id="path17"
         style="fill:#6e199a;fill-opacity:1" />
      <path
         class="cls-1"
         d="m 257.44,465.49 c 2.02,0 3.63,0.3 4.84,0.9 1.21,0.6 2.08,1.58 2.61,2.93 0.53,1.36 0.79,3.15 0.79,5.38 0,2.23 -0.26,4.03 -0.79,5.38 -0.53,1.36 -1.4,2.33 -2.61,2.93 -1.21,0.6 -2.83,0.9 -4.84,0.9 -2.01,0 -3.59,-0.3 -4.81,-0.9 -1.21,-0.6 -2.09,-1.58 -2.63,-2.93 -0.54,-1.36 -0.81,-3.15 -0.81,-5.38 0,-2.23 0.27,-4.03 0.81,-5.38 0.54,-1.36 1.42,-2.33 2.63,-2.93 1.21,-0.6 2.81,-0.9 4.81,-0.9 z m 0,2.59 c -1.27,0 -2.27,0.2 -3.01,0.59 -0.73,0.4 -1.25,1.07 -1.57,2.03 -0.32,0.96 -0.47,2.29 -0.47,4 0,1.71 0.16,3.04 0.47,4 0.31,0.96 0.83,1.64 1.57,2.03 0.73,0.4 1.73,0.59 3.01,0.59 1.28,0 2.28,-0.2 3.02,-0.59 0.74,-0.4 1.27,-1.07 1.58,-2.03 0.31,-0.96 0.47,-2.29 0.47,-4 0,-1.71 -0.16,-3.04 -0.47,-4 -0.31,-0.96 -0.84,-1.64 -1.58,-2.03 -0.74,-0.4 -1.75,-0.59 -3.02,-0.59 z"
         id="path18"
         style="fill:#6e199a;fill-opacity:1" />
      <path
         class="cls-1"
         d="m 280.48,465.92 v 2.41 h -11.84 v -2.23 l 3.35,-0.18 h 8.5 z m -3.56,-8.28 c 0.38,0 0.88,0 1.48,0.02 0.6,0.01 1.21,0.04 1.84,0.07 0.62,0.04 1.16,0.09 1.62,0.16 l -0.25,2.27 h -3.6 c -1.15,0 -1.96,0.23 -2.43,0.68 -0.47,0.46 -0.7,1.21 -0.7,2.27 v 20.34 h -3.06 v -20.66 c 0,-1.1 0.17,-2.03 0.5,-2.79 0.34,-0.76 0.88,-1.34 1.62,-1.75 0.74,-0.41 1.74,-0.61 2.99,-0.61 z"
         id="path19"
         style="fill:#6e199a;fill-opacity:1" />
      <path
         class="cls-1"
         d="m 294.09,465.92 v 2.41 h -11.81 v -2.23 l 3.46,-0.18 z m -5.58,-5.18 v 17.89 c 0,0.84 0.18,1.44 0.54,1.8 0.36,0.36 0.97,0.54 1.84,0.54 h 2.66 l 0.36,2.34 c -0.38,0.1 -0.83,0.18 -1.33,0.25 -0.5,0.07 -1,0.13 -1.48,0.16 -0.48,0.04 -0.86,0.05 -1.15,0.05 -1.46,0 -2.58,-0.41 -3.35,-1.22 -0.77,-0.82 -1.15,-1.99 -1.15,-3.53 v -18.29 h 3.06 z"
         id="path20"
         style="fill:#6e199a;fill-opacity:1" />
      <path
         class="cls-1"
         d="m 323.79,465.92 -5.11,16.67 c -0.07,0.26 -0.22,0.47 -0.43,0.63 -0.22,0.16 -0.47,0.23 -0.76,0.23 h -2.77 c -0.29,0 -0.55,-0.09 -0.77,-0.27 -0.23,-0.18 -0.37,-0.41 -0.41,-0.7 l -2.88,-11.92 c -0.1,-0.46 -0.19,-0.91 -0.27,-1.37 -0.08,-0.46 -0.19,-0.92 -0.31,-1.4 h -0.43 c -0.1,0.48 -0.2,0.95 -0.31,1.4 -0.11,0.45 -0.21,0.91 -0.31,1.37 l -2.84,11.92 c -0.07,0.29 -0.22,0.52 -0.43,0.7 -0.22,0.18 -0.48,0.27 -0.79,0.27 h -2.74 c -0.29,0 -0.54,-0.08 -0.76,-0.23 -0.22,-0.16 -0.36,-0.37 -0.43,-0.63 l -5.11,-16.67 h 3.17 l 3.64,12.92 c 0.12,0.43 0.23,0.87 0.32,1.31 0.1,0.44 0.18,0.88 0.25,1.31 h 0.47 c 0.12,-0.43 0.23,-0.87 0.34,-1.31 0.11,-0.44 0.21,-0.88 0.31,-1.31 l 2.92,-11.95 c 0.05,-0.29 0.17,-0.52 0.38,-0.7 0.2,-0.18 0.46,-0.27 0.77,-0.27 h 2.77 c 0.29,0 0.53,0.09 0.74,0.27 0.2,0.18 0.34,0.43 0.41,0.74 l 2.88,11.92 c 0.1,0.43 0.2,0.86 0.31,1.3 0.11,0.43 0.21,0.88 0.31,1.33 h 0.47 c 0.12,-0.46 0.22,-0.89 0.29,-1.31 0.07,-0.42 0.18,-0.86 0.32,-1.31 l 3.64,-12.92 h 3.17 z"
         id="path21"
         style="fill:#6e199a;fill-opacity:1" />
      <path
         class="cls-1"
         d="m 340.24,472.65 -0.04,2.3 -8.39,0.04 c -0.84,0.02 -1.43,0.25 -1.76,0.67 -0.34,0.42 -0.5,1 -0.5,1.75 v 1.12 c 0,0.91 0.22,1.58 0.65,2 0.43,0.42 1.13,0.63 2.09,0.63 0.67,0 1.43,-0.13 2.29,-0.38 0.85,-0.25 1.71,-0.64 2.57,-1.17 0.86,-0.53 1.66,-1.2 2.38,-2.02 v 2.27 c -0.26,0.34 -0.64,0.73 -1.13,1.17 -0.49,0.44 -1.08,0.88 -1.76,1.3 -0.68,0.42 -1.44,0.77 -2.27,1.04 -0.83,0.28 -1.72,0.41 -2.68,0.41 -1.03,0 -1.94,-0.19 -2.74,-0.56 -0.8,-0.37 -1.41,-0.92 -1.85,-1.66 -0.44,-0.73 -0.67,-1.62 -0.67,-2.68 v -1.91 c 0,-1.37 0.43,-2.43 1.28,-3.19 0.85,-0.76 2.05,-1.13 3.58,-1.13 h 8.96 z m -4.57,-7.16 c 1.3,0 2.39,0.17 3.29,0.52 0.9,0.35 1.58,0.93 2.03,1.75 0.46,0.82 0.68,1.93 0.68,3.35 v 12.35 h -2.41 l -0.47,-3.82 -0.22,-0.4 v -8.14 c 0,-1.08 -0.25,-1.85 -0.74,-2.32 -0.49,-0.47 -1.43,-0.7 -2.83,-0.7 -0.91,0 -2.06,0.05 -3.44,0.14 -1.38,0.1 -2.74,0.2 -4.09,0.32 l -0.29,-2.27 c 0.82,-0.14 1.71,-0.28 2.68,-0.4 0.97,-0.12 1.96,-0.22 2.97,-0.29 1.01,-0.07 1.94,-0.11 2.81,-0.11 z"
         id="path22"
         style="fill:#6e199a;fill-opacity:1" />
      <path
         class="cls-1"
         d="m 349.53,465.92 0.4,3.35 0.29,0.54 v 13.64 h -3.06 v -17.53 h 2.38 z m 8.6,-0.43 -0.36,2.88 h -1.01 c -1.03,0 -2.06,0.21 -3.1,0.63 -1.03,0.42 -2.29,1.01 -3.78,1.78 l -0.25,-1.91 c 1.3,-1.06 2.6,-1.88 3.91,-2.48 1.31,-0.6 2.57,-0.9 3.8,-0.9 z"
         id="path23"
         style="fill:#6e199a;fill-opacity:1" />
      <path
         class="cls-1"
         d="m 368.32,465.49 c 2.64,0 4.55,0.48 5.74,1.44 1.19,0.96 1.78,2.39 1.78,4.28 0.02,1.56 -0.3,2.78 -0.97,3.65 -0.67,0.88 -1.74,1.31 -3.2,1.31 h -10.22 v -2.38 h 9.43 c 0.79,0 1.31,-0.27 1.55,-0.81 0.24,-0.54 0.36,-1.13 0.36,-1.78 -0.02,-1.13 -0.36,-1.93 -1.01,-2.41 -0.65,-0.48 -1.75,-0.72 -3.31,-0.72 -1.27,0 -2.27,0.19 -3.01,0.56 -0.73,0.37 -1.25,1.02 -1.55,1.94 -0.3,0.92 -0.45,2.21 -0.45,3.87 0,1.87 0.19,3.3 0.56,4.28 0.37,0.98 0.97,1.66 1.78,2.02 0.81,0.36 1.9,0.54 3.24,0.54 0.94,0 1.96,-0.04 3.08,-0.13 1.12,-0.08 2.12,-0.19 3.01,-0.31 l 0.32,2.05 c -0.55,0.22 -1.23,0.4 -2.03,0.54 -0.8,0.14 -1.63,0.25 -2.48,0.32 -0.85,0.07 -1.61,0.11 -2.29,0.11 -2.02,0 -3.64,-0.31 -4.86,-0.92 -1.22,-0.61 -2.12,-1.6 -2.68,-2.95 -0.56,-1.36 -0.85,-3.15 -0.85,-5.38 0,-2.23 0.28,-4.12 0.85,-5.45 0.56,-1.33 1.44,-2.28 2.63,-2.84 1.19,-0.56 2.72,-0.85 4.59,-0.85 z"
         id="path24"
         style="fill:#6e199a;fill-opacity:1" />
      <path
         class="cls-1"
         d="m 387.65,465.49 c 2.64,0 4.55,0.48 5.74,1.44 1.19,0.96 1.78,2.39 1.78,4.28 0.02,1.56 -0.3,2.78 -0.97,3.65 -0.67,0.88 -1.74,1.31 -3.2,1.31 h -10.22 v -2.38 h 9.43 c 0.79,0 1.31,-0.27 1.55,-0.81 0.24,-0.54 0.36,-1.13 0.36,-1.78 -0.02,-1.13 -0.36,-1.93 -1.01,-2.41 -0.65,-0.48 -1.75,-0.72 -3.31,-0.72 -1.27,0 -2.27,0.19 -3.01,0.56 -0.73,0.37 -1.25,1.02 -1.55,1.94 -0.3,0.92 -0.45,2.21 -0.45,3.87 0,1.87 0.19,3.3 0.56,4.28 0.37,0.98 0.97,1.66 1.78,2.02 0.81,0.36 1.9,0.54 3.24,0.54 0.94,0 1.96,-0.04 3.08,-0.13 1.12,-0.08 2.12,-0.19 3.01,-0.31 l 0.32,2.05 c -0.55,0.22 -1.23,0.4 -2.03,0.54 -0.8,0.14 -1.63,0.25 -2.48,0.32 -0.85,0.07 -1.61,0.11 -2.29,0.11 -2.02,0 -3.64,-0.31 -4.86,-0.92 -1.22,-0.61 -2.12,-1.6 -2.68,-2.95 -0.56,-1.36 -0.85,-3.15 -0.85,-5.38 0,-2.23 0.28,-4.12 0.85,-5.45 0.56,-1.33 1.44,-2.28 2.63,-2.84 1.19,-0.56 2.72,-0.85 4.59,-0.85 z"
         id="path25"
         style="fill:#6e199a;fill-opacity:1" />
      <path
         class="cls-1"
         d="m 402.37,465.92 0.25,3.35 0.22,0.54 v 13.64 h -3.06 v -17.53 z m 8.07,-0.43 c 3.17,0 4.75,1.61 4.75,4.82 v 13.14 h -3.06 v -12.28 c 0,-1.18 -0.19,-1.99 -0.58,-2.43 -0.38,-0.44 -1.03,-0.67 -1.94,-0.67 -1.08,0 -2.16,0.26 -3.24,0.79 -1.08,0.53 -2.36,1.25 -3.85,2.16 l -0.14,-2.2 c 1.37,-1.06 2.72,-1.88 4.07,-2.47 1.35,-0.59 2.68,-0.88 4,-0.88 z"
         id="path26"
         style="fill:#6e199a;fill-opacity:1" />
      <path
         class="cls-1"
         d="m 430.67,465.92 v 2.41 h -11.81 v -2.23 l 3.46,-0.18 z m -5.58,-5.18 v 17.89 c 0,0.84 0.18,1.44 0.54,1.8 0.36,0.36 0.97,0.54 1.84,0.54 h 2.66 l 0.36,2.34 c -0.38,0.1 -0.83,0.18 -1.33,0.25 -0.5,0.07 -1,0.13 -1.48,0.16 -0.48,0.04 -0.86,0.05 -1.15,0.05 -1.46,0 -2.58,-0.41 -3.35,-1.22 -0.77,-0.82 -1.15,-1.99 -1.15,-3.53 v -18.29 h 3.06 z"
         id="path27"
         style="fill:#6e199a;fill-opacity:1" />
      <path
         class="cls-1"
         d="m 460.37,465.92 -5.11,16.67 c -0.07,0.26 -0.22,0.47 -0.43,0.63 -0.22,0.16 -0.47,0.23 -0.76,0.23 h -2.77 c -0.29,0 -0.55,-0.09 -0.77,-0.27 -0.23,-0.18 -0.37,-0.41 -0.41,-0.7 l -2.88,-11.92 c -0.1,-0.46 -0.19,-0.91 -0.27,-1.37 -0.08,-0.46 -0.19,-0.92 -0.31,-1.4 h -0.43 c -0.1,0.48 -0.2,0.95 -0.31,1.4 -0.11,0.46 -0.21,0.91 -0.31,1.37 l -2.84,11.92 c -0.07,0.29 -0.22,0.52 -0.43,0.7 -0.22,0.18 -0.48,0.27 -0.79,0.27 h -2.74 c -0.29,0 -0.54,-0.08 -0.76,-0.23 -0.22,-0.16 -0.36,-0.37 -0.43,-0.63 l -5.11,-16.67 h 3.17 l 3.64,12.92 c 0.12,0.43 0.23,0.87 0.32,1.31 0.09,0.44 0.18,0.88 0.25,1.31 h 0.47 c 0.12,-0.43 0.23,-0.87 0.34,-1.31 0.11,-0.44 0.21,-0.88 0.31,-1.31 l 2.92,-11.95 c 0.05,-0.29 0.17,-0.52 0.38,-0.7 0.2,-0.18 0.46,-0.27 0.77,-0.27 h 2.77 c 0.29,0 0.53,0.09 0.74,0.27 0.2,0.18 0.34,0.43 0.41,0.74 l 2.88,11.92 c 0.1,0.43 0.2,0.86 0.31,1.3 0.11,0.43 0.21,0.88 0.31,1.33 h 0.47 c 0.12,-0.46 0.22,-0.89 0.29,-1.31 0.07,-0.42 0.18,-0.86 0.32,-1.31 l 3.64,-12.92 h 3.17 z"
         id="path28"
         style="fill:#6e199a;fill-opacity:1" />
      <path
         class="cls-1"
         d="m 466.45,458.47 c 0.62,0 0.94,0.31 0.94,0.94 v 2.05 c 0,0.62 -0.31,0.94 -0.94,0.94 h -1.44 c -0.62,0 -0.94,-0.31 -0.94,-0.94 v -2.05 c 0,-0.62 0.31,-0.94 0.94,-0.94 z m 0.8,7.45 v 17.53 h -3.02 v -17.53 z"
         id="path29"
         style="fill:#6e199a;fill-opacity:1" />
      <path
         class="cls-1"
         d="m 480.49,465.49 c 0.53,0 1.12,0.02 1.76,0.07 0.65,0.05 1.31,0.13 2,0.25 0.68,0.12 1.31,0.29 1.89,0.5 l -0.4,1.98 c -0.79,-0.07 -1.63,-0.13 -2.5,-0.16 -0.87,-0.03 -1.63,-0.05 -2.25,-0.05 -1.39,0 -2.5,0.19 -3.31,0.58 -0.82,0.38 -1.4,1.06 -1.76,2.02 -0.36,0.96 -0.54,2.29 -0.54,4 0,1.71 0.18,3.04 0.54,4.01 0.36,0.97 0.95,1.65 1.76,2.03 0.82,0.38 1.92,0.58 3.31,0.58 0.36,0 0.83,-0.01 1.4,-0.04 0.58,-0.02 1.19,-0.06 1.85,-0.11 0.66,-0.05 1.29,-0.12 1.89,-0.22 l 0.32,2.05 c -0.89,0.31 -1.85,0.54 -2.9,0.68 -1.04,0.14 -2.08,0.22 -3.11,0.22 -2.02,0 -3.64,-0.3 -4.86,-0.9 -1.22,-0.6 -2.11,-1.57 -2.65,-2.92 -0.54,-1.34 -0.81,-3.14 -0.81,-5.4 0,-2.26 0.28,-4.06 0.83,-5.4 0.55,-1.34 1.44,-2.31 2.66,-2.9 1.22,-0.59 2.84,-0.88 4.86,-0.88 z"
         id="path30"
         style="fill:#6e199a;fill-opacity:1" />
      <path
         class="cls-1"
         d="m 493.67,458.25 0.04,11.2 c 0,0.74 -0.03,1.43 -0.09,2.07 -0.06,0.64 -0.15,1.3 -0.27,2 0.12,0.67 0.2,1.34 0.25,2.02 0.05,0.67 0.07,1.32 0.07,1.94 v 5.98 h -3.06 v -25.2 h 3.06 z m 2.99,14.19 v 2.23 h -4.07 v -2.23 z m 8.28,-6.52 -5.51,6.44 c -0.17,0.22 -0.37,0.44 -0.61,0.67 -0.24,0.23 -0.44,0.4 -0.61,0.52 v 0.07 c 0.17,0.12 0.37,0.32 0.61,0.59 0.24,0.28 0.44,0.55 0.61,0.81 l 6.08,8.42 h -3.56 L 495,473.4 l 6.37,-7.49 h 3.56 z"
         id="path31"
         style="fill:#6e199a;fill-opacity:1" />
      <path
         class="cls-1"
         d="m 511.99,458.25 v 20.38 c 0,0.77 0.21,1.35 0.63,1.75 0.42,0.4 1.01,0.59 1.78,0.59 h 1.69 l 0.36,2.34 c -0.22,0.1 -0.52,0.18 -0.92,0.25 -0.4,0.07 -0.8,0.13 -1.22,0.16 -0.42,0.03 -0.77,0.05 -1.06,0.05 -1.3,0 -2.33,-0.38 -3.11,-1.15 -0.78,-0.77 -1.17,-1.87 -1.17,-3.31 v -21.06 z"
         id="path32"
         style="fill:#6e199a;fill-opacity:1" />
      <path
         class="cls-1"
         d="m 522.58,465.92 v 12.31 c -0.02,1.1 0.18,1.88 0.61,2.34 0.43,0.46 1.15,0.68 2.16,0.68 1.01,0 1.96,-0.23 2.93,-0.7 0.97,-0.47 2.14,-1.15 3.51,-2.03 l 0.4,2.12 c -1.37,1.08 -2.69,1.9 -3.98,2.45 -1.28,0.55 -2.59,0.83 -3.91,0.83 -3.19,0 -4.79,-1.61 -4.79,-4.82 v -13.18 h 3.06 z m 11.95,0 v 17.53 h -2.45 l -0.29,-3.31 -0.32,-0.54 v -13.68 z"
         id="path33"
         style="fill:#6e199a;fill-opacity:1" />
      <path
         class="cls-1"
         d="m 542.74,465.92 0.25,3.35 0.22,0.54 v 13.64 h -3.06 v -17.53 z m 8.06,-0.43 c 3.17,0 4.75,1.61 4.75,4.82 v 13.14 h -3.06 v -12.28 c 0,-1.18 -0.19,-1.99 -0.58,-2.43 -0.38,-0.44 -1.03,-0.67 -1.94,-0.67 -1.08,0 -2.16,0.26 -3.24,0.79 -1.08,0.53 -2.36,1.25 -3.85,2.16 l -0.14,-2.2 c 1.37,-1.06 2.72,-1.88 4.07,-2.47 1.34,-0.59 2.68,-0.88 4,-0.88 z"
         id="path34"
         style="fill:#6e199a;fill-opacity:1" />
      <path
         class="cls-1"
         d="m 563.04,475.5 1.76,0.25 c -0.41,0.36 -0.68,0.8 -0.83,1.31 -0.14,0.52 -0.1,0.99 0.13,1.42 0.23,0.43 0.71,0.71 1.46,0.83 l 6.55,1.04 c 1.66,0.24 2.81,0.76 3.46,1.55 0.65,0.79 0.97,1.92 0.97,3.38 0,1.37 -0.26,2.45 -0.77,3.24 -0.52,0.79 -1.39,1.36 -2.61,1.69 -1.22,0.33 -2.88,0.5 -4.97,0.5 -1.58,0 -2.92,-0.09 -4,-0.27 -1.08,-0.18 -1.95,-0.48 -2.61,-0.9 -0.66,-0.42 -1.13,-0.97 -1.42,-1.64 -0.29,-0.67 -0.43,-1.51 -0.43,-2.52 0,-0.77 0.11,-1.41 0.34,-1.93 0.23,-0.52 0.59,-0.98 1.08,-1.39 0.49,-0.41 1.13,-0.8 1.93,-1.19 l 2.16,-1.19 1.4,0.5 -1.76,1.33 c -0.48,0.36 -0.88,0.71 -1.21,1.06 -0.32,0.35 -0.56,0.72 -0.72,1.12 -0.16,0.4 -0.23,0.87 -0.23,1.42 0,0.82 0.16,1.44 0.47,1.87 0.31,0.43 0.86,0.73 1.66,0.88 0.8,0.15 1.9,0.23 3.31,0.23 1.41,0 2.51,-0.08 3.29,-0.25 0.78,-0.17 1.33,-0.47 1.64,-0.9 0.31,-0.43 0.47,-1.04 0.47,-1.84 0,-0.6 -0.08,-1.06 -0.23,-1.37 -0.16,-0.31 -0.45,-0.55 -0.88,-0.72 -0.43,-0.17 -1.07,-0.31 -1.91,-0.43 l -6.3,-0.86 c -0.74,-0.1 -1.34,-0.34 -1.78,-0.72 -0.44,-0.38 -0.75,-0.84 -0.92,-1.37 -0.17,-0.53 -0.22,-1.06 -0.14,-1.6 0.07,-0.54 0.25,-1.04 0.54,-1.51 0.29,-0.47 0.66,-0.82 1.12,-1.06 z m 4.97,-10.01 c 1.87,0 3.35,0.19 4.45,0.58 1.09,0.38 1.87,0.98 2.34,1.8 0.47,0.82 0.7,1.88 0.7,3.2 0,1.32 -0.23,2.32 -0.7,3.15 -0.47,0.83 -1.25,1.44 -2.36,1.84 -1.1,0.4 -2.59,0.59 -4.46,0.59 -1.87,0 -3.35,-0.2 -4.45,-0.59 -1.09,-0.4 -1.87,-1 -2.34,-1.82 -0.47,-0.82 -0.7,-1.86 -0.7,-3.13 0,-1.27 0.23,-2.39 0.7,-3.22 0.47,-0.83 1.25,-1.43 2.36,-1.82 1.1,-0.38 2.59,-0.58 4.46,-0.58 z m -0.04,2.34 c -1.75,0 -2.97,0.25 -3.65,0.74 -0.68,0.49 -1.03,1.33 -1.03,2.5 0,1.17 0.34,1.98 1.03,2.48 0.68,0.5 1.9,0.76 3.65,0.76 1.75,0 3,-0.25 3.67,-0.76 0.67,-0.5 1.01,-1.33 1.01,-2.48 0,-1.15 -0.34,-2.01 -1.01,-2.5 -0.67,-0.49 -1.9,-0.74 -3.67,-0.74 z m 9.58,-1.91 -0.18,1.69 -4.46,0.36 -1.26,-2.05 z"
         id="path35"
         style="fill:#6e199a;fill-opacity:1" />
      <path
         class="cls-1"
         d="m 588.92,465.24 14.62,6.26 v 2.45 l -14.62,6.16 v -2.45 l 11.95,-4.93 -11.95,-5.04 z"
         id="path36"
         style="fill:#6e199a;fill-opacity:1" />
   </g>
   <g
      id="g42"
      style="display:inline;fill:#6e199a;fill-opacity:1"
      transform="translate(-22.98,-355)">
      <path
         class="cls-2"
         d="m 154.8,515.84 h -13.49 l -4.02,-6.99 c -1.47,-2.55 -3.83,-4.07 -6.3,-4.07 h -62.7 c -2.48,0 -4.84,1.52 -6.3,4.07 l -4.02,6.99 H 44.48 l 7.38,-12.82 c 3.57,-6.21 9.72,-9.93 16.43,-9.93 h 62.7 c 6.71,0 12.85,3.72 16.43,9.93 z"
         id="path37"
         style="fill:#6e199a;fill-opacity:1" />
      <g
         id="g39"
         style="fill:#6e199a;fill-opacity:1">
         <path
            class="cls-2"
            d="m 23.02,390.2 c 0,-7.31 1.83,-12.85 5.48,-16.62 3.66,-3.77 9.09,-5.65 16.29,-5.65 h 41.58 c 2.95,0 5.07,-0.63 6.38,-1.88 1.31,-1.26 1.96,-3.08 1.96,-5.48 V 355 h 9.82 v 5.57 c 0,2.4 0.65,4.23 1.96,5.48 1.31,1.25 3.44,1.88 6.38,1.88 h 41.58 c 7.31,0 12.77,1.88 16.37,5.65 3.6,3.77 5.4,9.3 5.4,16.62 v 6.22 h -9.66 V 392 c 0,-4.15 -1.15,-7.26 -3.44,-9.33 -2.29,-2.07 -5.51,-3.11 -9.66,-3.11 h -40.44 c -3.27,0 -5.84,-0.38 -7.69,-1.15 -1.86,-0.77 -3.27,-1.94 -4.26,-3.52 -0.98,-1.58 -1.75,-3.63 -2.29,-6.14 h 1.64 c -0.44,2.51 -1.17,4.56 -2.21,6.14 -1.04,1.58 -2.48,2.76 -4.34,3.52 -1.86,0.76 -4.42,1.15 -7.69,1.15 H 45.74 c -4.15,0 -7.37,1.04 -9.66,3.11 -2.29,2.07 -3.44,5.18 -3.44,9.33 v 4.42 h -9.66 v -6.22 z"
            id="path38"
            style="fill:#6e199a;fill-opacity:1" />
         <path
            class="cls-2"
            d="m 23.02,449.52 h 9.66 v 4.42 c 0,4.15 1.15,7.26 3.44,9.33 2.29,2.07 5.51,3.11 9.66,3.11 h 40.44 c 3.27,0 5.84,0.38 7.69,1.15 1.85,0.77 3.3,1.94 4.34,3.52 1.04,1.58 1.77,3.63 2.21,6.14 h -1.64 c 0.54,-2.51 1.31,-4.56 2.29,-6.14 0.98,-1.58 2.4,-2.76 4.26,-3.52 1.85,-0.76 4.42,-1.15 7.69,-1.15 h 40.44 c 4.15,0 7.37,-1.04 9.66,-3.11 2.29,-2.07 3.44,-5.18 3.44,-9.33 v -4.42 h 9.66 v 6.22 c 0,7.31 -1.8,12.85 -5.4,16.62 -3.6,3.77 -9.06,5.65 -16.37,5.65 h -41.58 c -2.95,0 -5.07,0.63 -6.38,1.88 -1.31,1.26 -1.96,3.08 -1.96,5.48 v 11.7 h -9.82 v -11.7 c 0,-2.4 -0.65,-4.23 -1.96,-5.48 -1.31,-1.25 -3.44,-1.88 -6.38,-1.88 H 44.83 c -7.2,0 -12.63,-1.88 -16.29,-5.65 -3.65,-3.77 -5.48,-9.3 -5.48,-16.62 v -6.22 z"
            id="path39"
            style="fill:#6e199a;fill-opacity:1" />
      </g>
      <g
         id="g41"
         style="fill:#6e199a;fill-opacity:1">
         <polygon
            class="cls-2"
            points="88.68,447.27 81.28,456.31 46.05,427.49 46.05,418.45 81.28,389.63 88.68,398.67 58.98,422.97 "
            id="polygon39"
            style="fill:#6e199a;fill-opacity:1" />
         <polygon
            class="cls-2"
            points="153.23,427.49 118,456.31 110.61,447.27 140.31,422.97 110.61,398.67 118,389.63 153.23,418.45 "
            id="polygon40"
            style="fill:#6e199a;fill-opacity:1" />
         <polygon
            class="cls-2"
            points="107.57,403.24 116.62,410.65 91.91,442.7 82.87,435.3 "
            id="polygon41"
            style="fill:#6e199a;fill-opacity:1" />
      </g>
   </g>
</svg>